<?xml version="1.0"?>
<svg xmlns="http://www.w3.org/2000/svg" height="512px" viewBox="1 -9 399.99999 399" width="512px" class=""><g><path d="m341.96875 266.199219h-134.96875v-59.667969h-14v59.667969h-134.96875c-12.675781.015625-22.945312 10.285156-22.960938 22.960937v18.21875h14v-18.21875c.003907-4.945312 4.011719-8.953125 8.960938-8.960937h134.96875v30.839843h14v-30.839843h134.96875c4.949219.007812 8.957031 4.015625 8.960938 8.960937v18.21875h14v-18.21875c-.015626-12.675781-10.285157-22.945312-22.960938-22.960937zm0 0" fill="#2561a1" data-original="#2561A1" class="" data-old_color="#2561a1" style="fill:#5FB383"/><path d="m340 30.5v148c-.015625 16.5625-13.4375 29.984375-30 30h-220c-16.570312.007812-30.007812-13.429688-30-30v-148c0-.578125.019531-1.148438.050781-1.71875l121.890625 103.207031c10.449219 8.851563 25.765625 8.84375 36.207032-.019531l121.792968-103.289062c.039063.601562.058594 1.210937.058594 1.820312zm0 0" fill="#e48e66" data-original="#E48E66" class="active-path" data-old_color="#e48e66" style="fill:#FFD15C"/><path d="m339.941406 28.679688-121.792968 103.289062c-10.441407 8.863281-25.757813 8.871094-36.207032.019531l-121.890625-103.207031c.910157-15.875 14.050781-28.28125 29.949219-28.28125h220c15.859375.003906 28.976562 12.347656 29.941406 28.179688zm0 0" fill="#f8ec7d" data-original="#F8EC7D" class="" data-old_color="#f8ec7d" style="fill:#F8B64C"/><path d="m336.46875 192.609375c-2.226562 4.191406-5.421875 7.785156-9.320312 10.492187l-70.046876-71.273437c-2.714843-2.753906-2.675781-7.1875.078126-9.898437 2.757812-2.710938 7.1875-2.675782 9.898437.082031zm0 0" fill="#af593c" data-original="#AF593C" class="" data-old_color="#af593c" style="fill:#F8B64C"/><path d="m142.511719 131.808594-69.683594 71.28125c-3.890625-2.714844-7.085937-6.3125-9.316406-10.5l68.976562-70.558594c2.703125-2.769531 7.136719-2.820312 9.902344-.121094 2.765625 2.699219 2.820313 7.132813.121094 9.898438zm0 0" fill="#af593c" data-original="#AF593C" class="" data-old_color="#af593c" style="fill:#F8B64C"/><path d="m337.238281 301.179688h42.761719c11.046875 0 20 8.953124 20 20v41.261718c0 11.042969-8.953125 20-20 20h-42.761719c-11.042969 0-20-8.957031-20-20v-41.261718c0-11.046876 8.957031-20 20-20zm0 0" fill="#6fe3ff" data-original="#6FE3FF" class="" data-old_color="#6fe3ff" style="fill:#99C794"/><path d="m178.621094 301.179688h42.757812c11.046875 0 20 8.953124 20 20v41.261718c0 11.042969-8.953125 20-20 20h-42.757812c-11.046875 0-20-8.957031-20-20v-41.261718c0-11.046876 8.953125-20 20-20zm0 0" fill="#6fe3ff" data-original="#6FE3FF" class="" data-old_color="#6fe3ff" style="fill:#99C794"/><path d="m20 301.179688h42.761719c11.042969 0 20 8.953124 20 20v41.261718c0 11.042969-8.957031 20-20 20h-42.761719c-11.046875 0-20-8.957031-20-20v-41.261718c0-11.046876 8.953125-20 20-20zm0 0" fill="#6fe3ff" data-original="#6FE3FF" class="" data-old_color="#6fe3ff" style="fill:#99C794"/><g fill="#2561a1"><path d="m35.390625 361.949219c-1.828125.003906-3.582031-.710938-4.890625-1.988281l-14.9375-14.582032c-2.769531-2.699218-2.824219-7.132812-.121094-9.898437 2.699219-2.765625 7.128906-2.820313 9.898438-.121094l10.050781 9.808594 22.03125-21.507813c2.765625-2.699218 7.195313-2.648437 9.898437.121094 2.699219 2.765625 2.644532 7.195312-.121093 9.898438l-26.917969 26.28125c-1.308594 1.277343-3.0625 1.992187-4.890625 1.988281zm0 0" data-original="#000000" class="" style="fill:#5FB383" data-old_color="#000000"/><path d="m194.011719 361.949219c-1.828125.003906-3.585938-.710938-4.890625-1.988281l-14.941406-14.582032c-2.765626-2.699218-2.820313-7.132812-.121094-9.898437 2.703125-2.765625 7.132812-2.820313 9.902344-.121094l10.046874 9.808594 22.03125-21.507813c2.773438-2.664062 7.175782-2.59375 9.863282.15625 2.6875 2.753906 2.648437 7.15625-.082032 9.863282l-26.921874 26.28125c-1.304688 1.277343-3.0625 1.992187-4.886719 1.988281zm0 0" data-original="#000000" class="" style="fill:#5FB383" data-old_color="#000000"/><path d="m352.628906 361.949219c-1.828125.003906-3.582031-.710938-4.886718-1.988281l-14.941407-14.582032c-2.769531-2.699218-2.820312-7.132812-.121093-9.898437 2.699218-2.765625 7.132812-2.820313 9.898437-.121094l10.050781 9.808594 22.03125-21.507813c1.785156-1.769531 4.378906-2.445312 6.800782-1.769531 2.421874.671875 4.296874 2.59375 4.910156 5.03125.617187 2.433594-.121094 5.015625-1.933594 6.757813l-26.917969 26.28125c-1.308593 1.277343-3.0625 1.992187-4.890625 1.988281zm0 0" data-original="#000000" class="" style="fill:#5FB383" data-old_color="#000000"/></g></g> </svg>
