<?xml version="1.0"?>
<svg xmlns="http://www.w3.org/2000/svg" height="512px" viewBox="-32 0 480 480.27518" width="512px" class=""><g><g fill="#9bc9ff"><path d="m370.558594 155.023438 24.460937-24.464844-45.199219-45.199219-24.464843 24.464844c17.382812 12.558593 32.644531 27.816406 45.203125 45.199219zm0 0" data-original="#000000" class="active-path" style="fill:#FFB848" data-old_color="#000000"/><path d="m208.378906 472c75.085938.015625 143.855469-42.03125 178.054688-108.878906 34.199218-66.84375 28.066406-147.214844-15.875-208.097656-12.558594-17.382813-27.820313-32.640626-45.203125-45.199219-70.199219-50.664063-165.03125-50.410157-234.957031.636719-69.929688 51.042968-99.074219 141.28125-72.214844 223.585937 26.855468 82.304687 103.621094 137.980469 190.195312 137.953125zm0-368c92.785156 0 168 75.214844 168 168s-75.214844 168-168 168c-92.78125 0-168-75.214844-168-168s75.21875-168 168-168zm0 0" data-original="#000000" class="active-path" style="fill:#FFB848" data-old_color="#000000"/><path d="m208.378906 288c8.839844 0 16-7.164062 16-16s-7.160156-16-16-16c-8.835937 0-16 7.164062-16 16s7.164063 16 16 16zm0 0" data-original="#000000" class="active-path" style="fill:#FFB848" data-old_color="#000000"/></g><path d="m208.378906 96c-97.199218 0-176 78.796875-176 176s78.800782 176 176 176c97.203125 0 176-78.796875 176-176-.109375-97.15625-78.839844-175.890625-176-176zm8 335.59375v-39.59375c0-4.417969-3.578125-8-8-8-4.417968 0-8 3.582031-8 8v39.59375c-81.929687-4.171875-147.421875-69.660156-151.589844-151.59375h39.589844c4.421875 0 8-3.582031 8-8s-3.578125-8-8-8h-39.589844c4.167969-81.933594 69.660157-147.421875 151.589844-151.59375v39.59375c0 4.417969 3.582032 8 8 8 4.421875 0 8-3.582031 8-8v-39.59375c36.835938 1.800781 71.898438 16.335938 99.203125 41.121094l-96.921875 96.871094c-3.199218-1.5625-6.714844-2.382813-10.28125-2.398438-13.253906 0-24 10.746094-24 24s10.746094 24 24 24c13.257813 0 24-10.746094 24-24-.011718-3.5625-.832031-7.078125-2.398437-10.28125l96.878906-96.878906c24.777344 27.292968 39.308594 62.34375 41.113281 99.160156h-47.59375c-4.417968 0-8 3.582031-8 8s3.582032 8 8 8h47.59375c-4.171875 81.933594-69.660156 147.421875-151.59375 151.59375zm0-159.59375c0 4.417969-3.578125 8-8 8-4.417968 0-8-3.582031-8-8s3.582032-8 8-8c4.421875 0 8 3.582031 8 8zm0 0" fill="#1e81ce" data-original="#1E81CE" class="" data-old_color="#1e81ce" style="fill:#FF9C00"/><path d="m380.925781 156 19.75-19.753906c3.125-3.121094 3.125-8.1875 0-11.308594l-45.199219-45.203125c-3.125-3.121094-8.1875-3.121094-11.3125 0l-19.785156 19.722656c-32-21.605469-69.414062-33.820312-108-35.257812v-48.199219h40c4.421875 0 8-3.582031 8-8s-3.578125-8-8-8h-96c-4.417968 0-8 3.582031-8 8s3.582032 8 8 8h40v48.199219c-94.71875 3.585937-175.050781 70.722656-195.390625 163.300781-20.34375 92.582031 24.445313 187.210938 108.9375 230.171875 84.492188 42.960937 187.34375 23.402344 250.164063-47.578125 62.820312-70.980469 69.742187-175.445312 16.835937-254.09375zm-31.105469-59.328125 33.886719 33.886719-12.382812 12.386718c-9.964844-12.550781-21.335938-23.921874-33.886719-33.890624zm-141.441406 367.328125c-106.035156 0-192-85.960938-192-192s85.964844-192 192-192c106.039063 0 192 85.960938 192 192-.121094 105.988281-86.011718 191.875-192 192zm0 0" fill="#1e81ce" data-original="#1E81CE" class="" data-old_color="#1e81ce" style="fill:#FF9C00"/></g> </svg>
